
<svg width="35px" height="62px" viewBox="0 0 35 62" version="1.1" xmlns="http://www.w3.org/2000/svg" xmlns:xlink="http://www.w3.org/1999/xlink">
    <!-- Generator: Sketch 43.2 (39069) - http://www.bohemiancoding.com/sketch -->
    <desc>Created with Sketch.</desc>
    <defs></defs>
    <g id="Symbols" stroke="none" stroke-width="1" fill="none" fill-rule="evenodd">
        <g id="icon_1_active" transform="translate(0.000000, 1.000000)" stroke-width="2" stroke="#FB3353">
            <g id="icon_1">
                <path d="M0,28 L4,28" id="Shape"></path>
                <path d="M0,18 L4,18" id="Shape"></path>
                <path d="M0,8 L4,8" id="Shape"></path>
                <path d="M28,34.5 L28,8 C28,3.6 24.4,0 20,0 C15.6,0 12,3.6 12,8 L12,34.5 C8.4,37 6,41.2 6,46 C6,53.7 12.3,60 20,60 C27.7,60 34,53.7 34,46 C34,41.2 31.6,37.1 28,34.5 L28,34.5 Z" id="Shape"></path>
                <circle id="Oval" cx="20" cy="46" r="6"></circle>
                <path d="M20,40 L20,14" id="Shape"></path>
            </g>
        </g>
    </g>
</svg>